<svg xmlns="http://www.w3.org/2000/svg" xmlns:xlink="http://www.w3.org/1999/xlink" width="1920" zoomAndPan="magnify" viewBox="70 230 1260 370" height="1080" preserveAspectRatio="xMidYMid meet" version="1.0"><defs><g/><clipPath id="ede5d87041"><path d="M 431 52 L 1276.71875 52 L 1276.71875 456.078125 L 431 456.078125 Z M 431 52 " clip-rule="nonzero"/></clipPath><clipPath id="fbfa406d5c"><rect x="0" width="846" y="0" height="405"/></clipPath><clipPath id="68e4f6f78f"><path d="M 33 89 L 216 89 L 216 254 L 33 254 Z M 33 89 " clip-rule="nonzero"/></clipPath><clipPath id="611413521f"><path d="M 44.921875 265.457031 L 22.164062 115.9375 L 192.710938 89.976562 L 215.46875 239.5 Z M 44.921875 265.457031 " clip-rule="nonzero"/></clipPath><clipPath id="710be731a0"><path d="M 42.738281 214.769531 C 38.664062 207.570312 35.425781 199.121094 34.121094 190.566406 C 32.820312 182.015625 33.203125 173.535156 34.960938 165.507812 C 35.027344 165.332031 35 165.171875 35.066406 164.996094 C 42.371094 134.738281 69.90625 109.082031 104.96875 103.332031 L 192.660156 89.988281 L 215.417969 239.507812 L 127.792969 252.84375 C 92.359375 257.824219 58.484375 241.84375 42.738281 214.769531 Z M 42.738281 214.769531 " clip-rule="nonzero"/></clipPath><clipPath id="8755115349"><path d="M 0 0.839844 L 182.441406 0.839844 L 182.441406 165 L 0 165 Z M 0 0.839844 " clip-rule="nonzero"/></clipPath><clipPath id="54ba65dd03"><path d="M 11.921875 176.457031 L -10.835938 26.9375 L 159.710938 0.976562 L 182.46875 150.5 Z M 11.921875 176.457031 " clip-rule="nonzero"/></clipPath><clipPath id="2048734e81"><path d="M 9.738281 125.769531 C 5.664062 118.570312 2.425781 110.121094 1.121094 101.566406 C -0.179688 93.015625 0.203125 84.535156 1.960938 76.507812 C 2.027344 76.332031 2 76.171875 2.066406 75.996094 C 9.371094 45.738281 36.90625 20.082031 71.96875 14.332031 L 159.660156 0.988281 L 182.417969 150.507812 L 94.792969 163.84375 C 59.359375 168.824219 25.484375 152.84375 9.738281 125.769531 Z M 9.738281 125.769531 " clip-rule="nonzero"/></clipPath><clipPath id="49fd81131b"><rect x="0" width="183" y="0" height="165"/></clipPath><clipPath id="edd46961b6"><path d="M 33 90 L 216 90 L 216 254 L 33 254 Z M 33 90 " clip-rule="nonzero"/></clipPath><clipPath id="de8aefd57a"><path d="M 45.507812 265.367188 L 22.859375 116.5625 L 193.140625 90.644531 L 215.789062 239.449219 Z M 45.507812 265.367188 " clip-rule="nonzero"/></clipPath><clipPath id="c2c9bba619"><path d="M 45.515625 265.367188 L 22.558594 114.558594 L 192.621094 88.675781 L 215.574219 239.484375 Z M 45.515625 265.367188 " clip-rule="nonzero"/></clipPath><clipPath id="094628dfd5"><path d="M 42.742188 214.773438 C 38.671875 207.578125 35.433594 199.128906 34.128906 190.578125 C 32.828125 182.023438 33.210938 173.546875 34.96875 165.519531 C 35.035156 165.34375 35.007812 165.183594 35.074219 165.007812 C 42.375 134.757812 69.910156 109.101562 104.96875 103.355469 L 192.644531 90.007812 L 215.398438 239.511719 L 127.789062 252.84375 C 92.359375 257.824219 58.492188 241.847656 42.742188 214.773438 Z M 42.742188 214.773438 " clip-rule="nonzero"/></clipPath><clipPath id="56aa672ccf"><path d="M 106 110 L 178 110 L 178 137 L 106 137 Z M 106 110 " clip-rule="nonzero"/></clipPath><clipPath id="18ef83e1b5"><path d="M 107.488281 137.304688 L 104.839844 121.925781 L 176.195312 109.628906 L 178.847656 125.007812 Z M 107.488281 137.304688 " clip-rule="nonzero"/></clipPath><clipPath id="817b69063d"><path d="M 106.164062 129.613281 C 105.8125 127.574219 106.285156 125.480469 107.476562 123.789062 C 108.671875 122.101562 110.488281 120.953125 112.527344 120.601562 L 168.449219 110.964844 C 170.488281 110.613281 172.582031 111.085938 174.273438 112.277344 C 175.964844 113.472656 177.109375 115.289062 177.460938 117.328125 C 177.8125 119.367188 177.339844 121.460938 176.148438 123.152344 C 174.953125 124.84375 173.136719 125.988281 171.097656 126.339844 L 115.175781 135.976562 C 113.136719 136.328125 111.042969 135.855469 109.351562 134.664062 C 107.660156 133.46875 106.515625 131.652344 106.164062 129.613281 Z M 106.164062 129.613281 " clip-rule="nonzero"/></clipPath><clipPath id="711b2fd8e1"><path d="M 0 0.480469 L 72 0.480469 L 72 26.398438 L 0 26.398438 Z M 0 0.480469 " clip-rule="nonzero"/></clipPath><clipPath id="abd727f1a7"><path d="M 1.488281 27.304688 L -1.160156 11.925781 L 70.195312 -0.371094 L 72.847656 15.007812 Z M 1.488281 27.304688 " clip-rule="nonzero"/></clipPath><clipPath id="d667e4eca2"><path d="M 0.164062 19.613281 C -0.1875 17.574219 0.285156 15.480469 1.476562 13.789062 C 2.671875 12.101562 4.488281 10.953125 6.527344 10.601562 L 62.449219 0.964844 C 64.488281 0.613281 66.582031 1.085938 68.273438 2.277344 C 69.964844 3.472656 71.109375 5.289062 71.460938 7.328125 C 71.8125 9.367188 71.339844 11.460938 70.148438 13.152344 C 68.953125 14.84375 67.136719 15.988281 65.097656 16.339844 L 9.175781 25.976562 C 7.136719 26.328125 5.042969 25.855469 3.351562 24.664062 C 1.660156 23.46875 0.515625 21.652344 0.164062 19.613281 Z M 0.164062 19.613281 " clip-rule="nonzero"/></clipPath><clipPath id="da510b5ff2"><rect x="0" width="72" y="0" height="27"/></clipPath><clipPath id="4fcdd13f84"><path d="M 167 6.503906 L 409 6.503906 L 409 256.332031 L 167 256.332031 Z M 167 6.503906 " clip-rule="nonzero"/></clipPath><clipPath id="35923f2b5b"><path d="M 212.488281 238.019531 L 363.730469 238.019531 L 363.730469 410 L 212.488281 410 Z M 212.488281 238.019531 " clip-rule="nonzero"/></clipPath><clipPath id="339fa55a1e"><path d="M 313.289062 405.066406 C 305.558594 408.007812 296.71875 409.9375 288.066406 409.9375 C 279.417969 409.9375 271.089844 408.285156 263.417969 405.339844 C 263.253906 405.25 263.09375 405.25 262.929688 405.15625 C 234.117188 393.386719 212.894531 362.300781 212.488281 326.773438 L 212.488281 238.074219 L 363.730469 238.074219 L 363.730469 326.707031 C 363.320312 362.484375 342.425781 393.570312 313.289062 405.066406 Z M 313.289062 405.066406 " clip-rule="nonzero"/></clipPath><clipPath id="8e814efea7"><path d="M 0.488281 0.0195312 L 151.730469 0.0195312 L 151.730469 172 L 0.488281 172 Z M 0.488281 0.0195312 " clip-rule="nonzero"/></clipPath><clipPath id="d12d05418a"><path d="M 101.289062 167.066406 C 93.558594 170.007812 84.71875 171.9375 76.066406 171.9375 C 67.417969 171.9375 59.089844 170.285156 51.417969 167.339844 C 51.253906 167.25 51.09375 167.25 50.929688 167.15625 C 22.117188 155.386719 0.894531 124.300781 0.488281 88.773438 L 0.488281 0.0742188 L 151.730469 0.0742188 L 151.730469 88.707031 C 151.320312 124.484375 130.425781 155.570312 101.289062 167.066406 Z M 101.289062 167.066406 " clip-rule="nonzero"/></clipPath><clipPath id="c867b98bf2"><rect x="0" width="152" y="0" height="172"/></clipPath><clipPath id="d3c6299c82"><path d="M 213.210938 238 L 363.730469 238 L 363.730469 409.933594 L 213.210938 409.933594 Z M 213.210938 238 " clip-rule="nonzero"/></clipPath><clipPath id="c831e3ce41"><path d="M 313.296875 405.058594 C 305.566406 408 296.730469 409.933594 288.078125 409.933594 C 279.425781 409.933594 271.101562 408.277344 263.433594 405.335938 C 263.269531 405.242188 263.105469 405.242188 262.941406 405.152344 C 234.132812 393.382812 212.917969 362.300781 212.507812 326.777344 L 212.507812 238.089844 L 363.730469 238.089844 L 363.730469 326.710938 C 363.320312 362.484375 342.429688 393.566406 313.296875 405.058594 Z M 313.296875 405.058594 " clip-rule="nonzero"/></clipPath><clipPath id="28961b76b6"><path d="M 233.097656 256.640625 L 248.703125 256.640625 L 248.703125 329 L 233.097656 329 Z M 233.097656 256.640625 " clip-rule="nonzero"/></clipPath><clipPath id="08dcb45f7c"><path d="M 240.902344 256.640625 C 242.96875 256.640625 244.953125 257.460938 246.417969 258.925781 C 247.878906 260.386719 248.703125 262.371094 248.703125 264.441406 L 248.703125 321.1875 C 248.703125 323.257812 247.878906 325.242188 246.417969 326.703125 C 244.953125 328.167969 242.96875 328.988281 240.902344 328.988281 C 238.832031 328.988281 236.847656 328.167969 235.382812 326.703125 C 233.921875 325.242188 233.097656 323.257812 233.097656 321.1875 L 233.097656 264.441406 C 233.097656 262.371094 233.921875 260.386719 235.382812 258.925781 C 236.847656 257.460938 238.832031 256.640625 240.902344 256.640625 Z M 240.902344 256.640625 " clip-rule="nonzero"/></clipPath><clipPath id="ac4ef6857a"><path d="M 0.0976562 0.640625 L 15.703125 0.640625 L 15.703125 73 L 0.0976562 73 Z M 0.0976562 0.640625 " clip-rule="nonzero"/></clipPath><clipPath id="e893c5a6b3"><path d="M 7.902344 0.640625 C 9.96875 0.640625 11.953125 1.460938 13.417969 2.925781 C 14.878906 4.386719 15.703125 6.371094 15.703125 8.441406 L 15.703125 65.1875 C 15.703125 67.257812 14.878906 69.242188 13.417969 70.703125 C 11.953125 72.167969 9.96875 72.988281 7.902344 72.988281 C 5.832031 72.988281 3.847656 72.167969 2.382812 70.703125 C 0.921875 69.242188 0.0976562 67.257812 0.0976562 65.1875 L 0.0976562 8.441406 C 0.0976562 6.371094 0.921875 4.386719 2.382812 2.925781 C 3.847656 1.460938 5.832031 0.640625 7.902344 0.640625 Z M 7.902344 0.640625 " clip-rule="nonzero"/></clipPath><clipPath id="c7828c539f"><rect x="0" width="16" y="0" height="73"/></clipPath><clipPath id="c571aa7952"><rect x="0" width="1277" y="0" height="457"/></clipPath></defs><g transform="matrix(1, 0, 0, 1, 44, 154)"><g clip-path="url(#c571aa7952)"><g clip-path="url(#ede5d87041)"><g transform="matrix(1, 0, 0, 1, 431, 52)"><g clip-path="url(#fbfa406d5c)"><g fill="#032a4b" fill-opacity="1"><g transform="translate(1.343893, 303.048556)"><g><path d="M 10.5 -214.765625 C 10.5 -237.640625 15.945312 -255.195312 26.84375 -267.4375 C 37.738281 -279.6875 54.085938 -285.8125 75.890625 -285.8125 C 97.691406 -285.8125 114.039062 -279.6875 124.9375 -267.4375 C 135.84375 -255.195312 141.296875 -237.640625 141.296875 -214.765625 L 141.296875 -203.859375 L 99.3125 -203.859375 L 99.3125 -217.59375 C 99.3125 -227.8125 97.359375 -235.003906 93.453125 -239.171875 C 89.546875 -243.347656 84.097656 -245.4375 77.109375 -245.4375 C 70.109375 -245.4375 64.65625 -243.347656 60.75 -239.171875 C 56.851562 -235.003906 54.90625 -227.8125 54.90625 -217.59375 C 54.90625 -207.90625 57.054688 -199.359375 61.359375 -191.953125 C 65.660156 -184.554688 71.039062 -177.5625 77.5 -170.96875 C 83.96875 -164.375 90.898438 -157.78125 98.296875 -151.1875 C 105.703125 -144.59375 112.632812 -137.390625 119.09375 -129.578125 C 125.550781 -121.773438 130.929688 -112.894531 135.234375 -102.9375 C 139.535156 -92.976562 141.6875 -81.269531 141.6875 -67.8125 C 141.6875 -44.9375 136.101562 -27.375 124.9375 -15.125 C 113.769531 -2.882812 97.285156 3.234375 75.484375 3.234375 C 53.691406 3.234375 37.207031 -2.882812 26.03125 -15.125 C 14.863281 -27.375 9.28125 -44.9375 9.28125 -67.8125 L 9.28125 -87.203125 L 51.265625 -87.203125 L 51.265625 -65 C 51.265625 -54.769531 53.347656 -47.632812 57.515625 -43.59375 C 61.691406 -39.5625 67.28125 -37.546875 74.28125 -37.546875 C 81.28125 -37.546875 86.863281 -39.5625 91.03125 -43.59375 C 95.195312 -47.632812 97.28125 -54.769531 97.28125 -65 C 97.28125 -74.6875 95.128906 -83.226562 90.828125 -90.625 C 86.523438 -98.03125 81.144531 -105.03125 74.6875 -111.625 C 68.226562 -118.21875 61.296875 -124.8125 53.890625 -131.40625 C 46.492188 -138 39.5625 -145.195312 33.09375 -153 C 26.632812 -160.800781 21.253906 -169.679688 16.953125 -179.640625 C 12.648438 -189.597656 10.5 -201.304688 10.5 -214.765625 Z M 10.5 -214.765625 "/></g></g></g><g fill="#032a4b" fill-opacity="1"><g transform="translate(152.322462, 303.048556)"><g><path d="M 144.921875 -105.359375 L 144.921875 -67.8125 C 144.921875 -44.9375 139.335938 -27.375 128.171875 -15.125 C 117.003906 -2.882812 100.519531 3.234375 78.71875 3.234375 C 56.914062 3.234375 40.429688 -2.882812 29.265625 -15.125 C 18.097656 -27.375 12.515625 -44.9375 12.515625 -67.8125 L 12.515625 -214.765625 C 12.515625 -237.640625 18.097656 -255.195312 29.265625 -267.4375 C 40.429688 -279.6875 56.914062 -285.8125 78.71875 -285.8125 C 100.519531 -285.8125 117.003906 -279.6875 128.171875 -267.4375 C 139.335938 -255.195312 144.921875 -237.640625 144.921875 -214.765625 L 144.921875 -187.3125 L 102.9375 -187.3125 L 102.9375 -217.59375 C 102.9375 -227.8125 100.847656 -235.003906 96.671875 -239.171875 C 92.503906 -243.347656 86.925781 -245.4375 79.9375 -245.4375 C 72.9375 -245.4375 67.347656 -243.347656 63.171875 -239.171875 C 59.003906 -235.003906 56.921875 -227.8125 56.921875 -217.59375 L 56.921875 -65 C 56.921875 -54.769531 59.003906 -47.632812 63.171875 -43.59375 C 67.347656 -39.5625 72.9375 -37.546875 79.9375 -37.546875 C 86.925781 -37.546875 92.503906 -39.5625 96.671875 -43.59375 C 100.847656 -47.632812 102.9375 -54.769531 102.9375 -65 L 102.9375 -105.359375 Z M 144.921875 -105.359375 "/></g></g></g><g fill="#032a4b" fill-opacity="1"><g transform="translate(308.145267, 303.048556)"><g><path d="M 109 0 C 108.457031 -1.882812 107.914062 -3.632812 107.375 -5.25 C 106.84375 -6.863281 106.375 -8.878906 105.96875 -11.296875 C 105.5625 -13.722656 105.289062 -16.816406 105.15625 -20.578125 C 105.019531 -24.347656 104.953125 -29.0625 104.953125 -34.71875 L 104.953125 -79.125 C 104.953125 -92.3125 102.664062 -101.59375 98.09375 -106.96875 C 93.519531 -112.351562 86.117188 -115.046875 75.890625 -115.046875 L 60.546875 -115.046875 L 60.546875 0 L 16.140625 0 L 16.140625 -282.578125 L 83.15625 -282.578125 C 106.300781 -282.578125 123.050781 -277.191406 133.40625 -266.421875 C 143.769531 -255.660156 148.953125 -239.382812 148.953125 -217.59375 L 148.953125 -195.390625 C 148.953125 -166.316406 139.265625 -147.207031 119.890625 -138.0625 C 131.191406 -133.488281 138.925781 -126.019531 143.09375 -115.65625 C 147.269531 -105.289062 149.359375 -92.707031 149.359375 -77.90625 L 149.359375 -34.3125 C 149.359375 -27.3125 149.628906 -21.1875 150.171875 -15.9375 C 150.710938 -10.695312 152.054688 -5.382812 154.203125 0 Z M 60.546875 -242.21875 L 60.546875 -155.421875 L 77.90625 -155.421875 C 86.25 -155.421875 92.773438 -157.570312 97.484375 -161.875 C 102.203125 -166.1875 104.5625 -173.992188 104.5625 -185.296875 L 104.5625 -213.140625 C 104.5625 -223.367188 102.742188 -230.769531 99.109375 -235.34375 C 95.472656 -239.925781 89.753906 -242.21875 81.953125 -242.21875 Z M 60.546875 -242.21875 "/></g></g></g><g fill="#032a4b" fill-opacity="1"><g transform="translate(470.427033, 303.048556)"><g><path d="M 16.140625 -282.578125 L 60.546875 -282.578125 L 60.546875 0 L 16.140625 0 Z M 16.140625 -282.578125 "/></g></g></g><g fill="#032a4b" fill-opacity="1"><g transform="translate(547.127336, 303.048556)"><g><path d="M 81.546875 -282.578125 C 103.878906 -282.578125 120.492188 -276.65625 131.390625 -264.8125 C 142.296875 -252.976562 147.75 -235.625 147.75 -212.75 L 147.75 -176 C 147.75 -153.125 142.296875 -135.765625 131.390625 -123.921875 C 120.492188 -112.085938 103.878906 -106.171875 81.546875 -106.171875 L 60.546875 -106.171875 L 60.546875 0 L 16.140625 0 L 16.140625 -282.578125 Z M 60.546875 -242.21875 L 60.546875 -146.53125 L 81.546875 -146.53125 C 88.546875 -146.53125 93.925781 -148.414062 97.6875 -152.1875 C 101.457031 -155.957031 103.34375 -162.957031 103.34375 -173.1875 L 103.34375 -215.5625 C 103.34375 -225.789062 101.457031 -232.789062 97.6875 -236.5625 C 93.925781 -240.332031 88.546875 -242.21875 81.546875 -242.21875 Z M 60.546875 -242.21875 "/></g></g></g><g fill="#032a4b" fill-opacity="1"><g transform="translate(699.316972, 303.048556)"><g><path d="M 4.03125 -282.578125 L 141.296875 -282.578125 L 141.296875 -242.21875 L 94.859375 -242.21875 L 94.859375 0 L 50.453125 0 L 50.453125 -242.21875 L 4.03125 -242.21875 Z M 4.03125 -282.578125 "/></g></g></g></g></g></g><g fill="#216184" fill-opacity="1"><g transform="translate(560.044272, 435.560781)"><g><path d="M 31.84375 0 L 23.234375 -12.09375 C 22.265625 -11.988281 21.257812 -11.9375 20.21875 -11.9375 L 10.109375 -11.9375 L 10.109375 0 L 6.125 0 L 6.125 -37.640625 L 20.21875 -37.640625 C 25.019531 -37.640625 28.785156 -36.492188 31.515625 -34.203125 C 34.242188 -31.910156 35.609375 -28.753906 35.609375 -24.734375 C 35.609375 -21.796875 34.863281 -19.3125 33.375 -17.28125 C 31.882812 -15.257812 29.757812 -13.800781 27 -12.90625 L 36.1875 0 Z M 20.109375 -15.328125 C 23.835938 -15.328125 26.6875 -16.148438 28.65625 -17.796875 C 30.632812 -19.453125 31.625 -21.765625 31.625 -24.734375 C 31.625 -27.785156 30.632812 -30.125 28.65625 -31.75 C 26.6875 -33.382812 23.835938 -34.203125 20.109375 -34.203125 L 10.109375 -34.203125 L 10.109375 -15.328125 Z M 20.109375 -15.328125 "/></g></g></g><g fill="#216184" fill-opacity="1"><g transform="translate(598.925442, 435.560781)"><g><path d="M 29.734375 -10.0625 L 8.765625 -10.0625 L 4.25 0 L 0.109375 0 L 17.3125 -37.640625 L 21.25 -37.640625 L 38.453125 0 L 34.265625 0 Z M 28.28125 -13.28125 L 19.25 -33.5 L 10.21875 -13.28125 Z M 28.28125 -13.28125 "/></g></g></g><g fill="#216184" fill-opacity="1"><g transform="translate(636.946118, 435.560781)"><g><path d="M 22.484375 0.328125 C 18.753906 0.328125 15.390625 -0.492188 12.390625 -2.140625 C 9.398438 -3.796875 7.050781 -6.082031 5.34375 -9 C 3.644531 -11.925781 2.796875 -15.203125 2.796875 -18.828125 C 2.796875 -22.441406 3.644531 -25.707031 5.34375 -28.625 C 7.050781 -31.550781 9.410156 -33.835938 12.421875 -35.484375 C 15.429688 -37.140625 18.800781 -37.96875 22.53125 -37.96875 C 25.332031 -37.96875 27.914062 -37.5 30.28125 -36.5625 C 32.644531 -35.632812 34.648438 -34.273438 36.296875 -32.484375 L 33.78125 -29.953125 C 30.832031 -32.929688 27.117188 -34.421875 22.640625 -34.421875 C 19.660156 -34.421875 16.953125 -33.738281 14.515625 -32.375 C 12.078125 -31.007812 10.164062 -29.144531 8.78125 -26.78125 C 7.40625 -24.414062 6.71875 -21.765625 6.71875 -18.828125 C 6.71875 -15.878906 7.40625 -13.222656 8.78125 -10.859375 C 10.164062 -8.492188 12.078125 -6.628906 14.515625 -5.265625 C 16.953125 -3.910156 19.660156 -3.234375 22.640625 -3.234375 C 27.160156 -3.234375 30.875 -4.738281 33.78125 -7.75 L 36.296875 -5.21875 C 34.648438 -3.425781 32.632812 -2.050781 30.25 -1.09375 C 27.863281 -0.144531 25.273438 0.328125 22.484375 0.328125 Z M 22.484375 0.328125 "/></g></g></g><g fill="#216184" fill-opacity="1"><g transform="translate(675.612199, 435.560781)"><g><path d="M 6.125 -37.640625 L 10.109375 -37.640625 L 10.109375 0 L 6.125 0 Z M 6.125 -37.640625 "/></g></g></g><g fill="#216184" fill-opacity="1"><g transform="translate(691.85303, 435.560781)"><g><path d="M 22.59375 0.328125 C 18.863281 0.328125 15.484375 -0.503906 12.453125 -2.171875 C 9.421875 -3.835938 7.050781 -6.125 5.34375 -9.03125 C 3.644531 -11.9375 2.796875 -15.203125 2.796875 -18.828125 C 2.796875 -22.441406 3.644531 -25.703125 5.34375 -28.609375 C 7.050781 -31.515625 9.421875 -33.800781 12.453125 -35.46875 C 15.484375 -37.132812 18.863281 -37.96875 22.59375 -37.96875 C 26.320312 -37.96875 29.679688 -37.140625 32.671875 -35.484375 C 35.660156 -33.835938 38.015625 -31.550781 39.734375 -28.625 C 41.460938 -25.707031 42.328125 -22.441406 42.328125 -18.828125 C 42.328125 -15.203125 41.460938 -11.925781 39.734375 -9 C 38.015625 -6.082031 35.660156 -3.796875 32.671875 -2.140625 C 29.679688 -0.492188 26.320312 0.328125 22.59375 0.328125 Z M 22.59375 -3.234375 C 25.5625 -3.234375 28.25 -3.90625 30.65625 -5.25 C 33.0625 -6.59375 34.941406 -8.453125 36.296875 -10.828125 C 37.660156 -13.210938 38.34375 -15.878906 38.34375 -18.828125 C 38.34375 -21.765625 37.660156 -24.425781 36.296875 -26.8125 C 34.941406 -29.195312 33.0625 -31.0625 30.65625 -32.40625 C 28.25 -33.75 25.5625 -34.421875 22.59375 -34.421875 C 19.613281 -34.421875 16.910156 -33.75 14.484375 -32.40625 C 12.066406 -31.0625 10.164062 -29.195312 8.78125 -26.8125 C 7.40625 -24.425781 6.71875 -21.765625 6.71875 -18.828125 C 6.71875 -15.878906 7.40625 -13.210938 8.78125 -10.828125 C 10.164062 -8.453125 12.066406 -6.59375 14.484375 -5.25 C 16.910156 -3.90625 19.613281 -3.234375 22.59375 -3.234375 Z M 22.59375 -3.234375 "/></g></g></g><g fill="#216184" fill-opacity="1"><g transform="translate(736.972417, 435.560781)"><g><path d="M 22.484375 0.328125 C 18.753906 0.328125 15.390625 -0.492188 12.390625 -2.140625 C 9.398438 -3.796875 7.050781 -6.082031 5.34375 -9 C 3.644531 -11.925781 2.796875 -15.203125 2.796875 -18.828125 C 2.796875 -22.441406 3.644531 -25.707031 5.34375 -28.625 C 7.050781 -31.550781 9.410156 -33.835938 12.421875 -35.484375 C 15.429688 -37.140625 18.800781 -37.96875 22.53125 -37.96875 C 25.332031 -37.96875 27.914062 -37.5 30.28125 -36.5625 C 32.644531 -35.632812 34.648438 -34.273438 36.296875 -32.484375 L 33.78125 -29.953125 C 30.832031 -32.929688 27.117188 -34.421875 22.640625 -34.421875 C 19.660156 -34.421875 16.953125 -33.738281 14.515625 -32.375 C 12.078125 -31.007812 10.164062 -29.144531 8.78125 -26.78125 C 7.40625 -24.414062 6.71875 -21.765625 6.71875 -18.828125 C 6.71875 -15.878906 7.40625 -13.222656 8.78125 -10.859375 C 10.164062 -8.492188 12.078125 -6.628906 14.515625 -5.265625 C 16.953125 -3.910156 19.660156 -3.234375 22.640625 -3.234375 C 27.160156 -3.234375 30.875 -4.738281 33.78125 -7.75 L 36.296875 -5.21875 C 34.648438 -3.425781 32.632812 -2.050781 30.25 -1.09375 C 27.863281 -0.144531 25.273438 0.328125 22.484375 0.328125 Z M 22.484375 0.328125 "/></g></g></g><g fill="#216184" fill-opacity="1"><g transform="translate(775.638499, 435.560781)"><g><path d="M 6.125 -37.640625 L 10.109375 -37.640625 L 10.109375 0 L 6.125 0 Z M 11.984375 -47.375 L 17.09375 -47.375 L 8.390625 -40.71875 L 4.625 -40.71875 Z M 11.984375 -47.375 "/></g></g></g><g fill="#216184" fill-opacity="1"><g transform="translate(791.879329, 435.560781)"><g><path d="M 37.59375 -37.640625 L 37.59375 0 L 34.3125 0 L 10.109375 -30.546875 L 10.109375 0 L 6.125 0 L 6.125 -37.640625 L 9.40625 -37.640625 L 33.671875 -7.09375 L 33.671875 -37.640625 Z M 37.59375 -37.640625 "/></g></g></g><g fill="#216184" fill-opacity="1"><g transform="translate(835.600502, 435.560781)"><g><path d="M 6.125 -37.640625 L 10.109375 -37.640625 L 10.109375 0 L 6.125 0 Z M 6.125 -37.640625 "/></g></g></g><g fill="#216184" fill-opacity="1"><g transform="translate(851.841333, 435.560781)"><g><path d="M 22.59375 0.328125 C 18.863281 0.328125 15.484375 -0.503906 12.453125 -2.171875 C 9.421875 -3.835938 7.050781 -6.125 5.34375 -9.03125 C 3.644531 -11.9375 2.796875 -15.203125 2.796875 -18.828125 C 2.796875 -22.441406 3.644531 -25.703125 5.34375 -28.609375 C 7.050781 -31.515625 9.421875 -33.800781 12.453125 -35.46875 C 15.484375 -37.132812 18.863281 -37.96875 22.59375 -37.96875 C 26.320312 -37.96875 29.679688 -37.140625 32.671875 -35.484375 C 35.660156 -33.835938 38.015625 -31.550781 39.734375 -28.625 C 41.460938 -25.707031 42.328125 -22.441406 42.328125 -18.828125 C 42.328125 -15.203125 41.460938 -11.925781 39.734375 -9 C 38.015625 -6.082031 35.660156 -3.796875 32.671875 -2.140625 C 29.679688 -0.492188 26.320312 0.328125 22.59375 0.328125 Z M 22.59375 -3.234375 C 25.5625 -3.234375 28.25 -3.90625 30.65625 -5.25 C 33.0625 -6.59375 34.941406 -8.453125 36.296875 -10.828125 C 37.660156 -13.210938 38.34375 -15.878906 38.34375 -18.828125 C 38.34375 -21.765625 37.660156 -24.425781 36.296875 -26.8125 C 34.941406 -29.195312 33.0625 -31.0625 30.65625 -32.40625 C 28.25 -33.75 25.5625 -34.421875 22.59375 -34.421875 C 19.613281 -34.421875 16.910156 -33.75 14.484375 -32.40625 C 12.066406 -31.0625 10.164062 -29.195312 8.78125 -26.8125 C 7.40625 -24.425781 6.71875 -21.765625 6.71875 -18.828125 C 6.71875 -15.878906 7.40625 -13.210938 8.78125 -10.828125 C 10.164062 -8.453125 12.066406 -6.59375 14.484375 -5.25 C 16.910156 -3.90625 19.613281 -3.234375 22.59375 -3.234375 Z M 22.59375 -3.234375 "/></g></g></g><g fill="#216184" fill-opacity="1"><g transform="translate(896.96072, 435.560781)"><g/></g></g><g fill="#216184" fill-opacity="1"><g transform="translate(911.050433, 435.560781)"><g><path d="M 22.484375 0.328125 C 18.753906 0.328125 15.390625 -0.492188 12.390625 -2.140625 C 9.398438 -3.796875 7.050781 -6.082031 5.34375 -9 C 3.644531 -11.925781 2.796875 -15.203125 2.796875 -18.828125 C 2.796875 -22.441406 3.644531 -25.707031 5.34375 -28.625 C 7.050781 -31.550781 9.410156 -33.835938 12.421875 -35.484375 C 15.429688 -37.140625 18.800781 -37.96875 22.53125 -37.96875 C 25.332031 -37.96875 27.914062 -37.5 30.28125 -36.5625 C 32.644531 -35.632812 34.648438 -34.273438 36.296875 -32.484375 L 33.78125 -29.953125 C 30.832031 -32.929688 27.117188 -34.421875 22.640625 -34.421875 C 19.660156 -34.421875 16.953125 -33.738281 14.515625 -32.375 C 12.078125 -31.007812 10.164062 -29.144531 8.78125 -26.78125 C 7.40625 -24.414062 6.71875 -21.765625 6.71875 -18.828125 C 6.71875 -15.878906 7.40625 -13.222656 8.78125 -10.859375 C 10.164062 -8.492188 12.078125 -6.628906 14.515625 -5.265625 C 16.953125 -3.910156 19.660156 -3.234375 22.640625 -3.234375 C 27.160156 -3.234375 30.875 -4.738281 33.78125 -7.75 L 36.296875 -5.21875 C 34.648438 -3.425781 32.632812 -2.050781 30.25 -1.09375 C 27.863281 -0.144531 25.273438 0.328125 22.484375 0.328125 Z M 22.484375 0.328125 "/></g></g></g><g fill="#216184" fill-opacity="1"><g transform="translate(949.716515, 435.560781)"><g><path d="M 6.125 -37.640625 L 10.109375 -37.640625 L 10.109375 -3.4375 L 31.1875 -3.4375 L 31.1875 0 L 6.125 0 Z M 6.125 -37.640625 "/></g></g></g><g fill="#216184" fill-opacity="1"><g transform="translate(981.391478, 435.560781)"><g><path d="M 6.125 -37.640625 L 10.109375 -37.640625 L 10.109375 0 L 6.125 0 Z M 11.984375 -47.375 L 17.09375 -47.375 L 8.390625 -40.71875 L 4.625 -40.71875 Z M 11.984375 -47.375 "/></g></g></g><g fill="#216184" fill-opacity="1"><g transform="translate(997.632332, 435.560781)"><g><path d="M 37.59375 -37.640625 L 37.59375 0 L 34.3125 0 L 10.109375 -30.546875 L 10.109375 0 L 6.125 0 L 6.125 -37.640625 L 9.40625 -37.640625 L 33.671875 -7.09375 L 33.671875 -37.640625 Z M 37.59375 -37.640625 "/></g></g></g><g fill="#216184" fill-opacity="1"><g transform="translate(1041.353505, 435.560781)"><g><path d="M 6.125 -37.640625 L 10.109375 -37.640625 L 10.109375 0 L 6.125 0 Z M 6.125 -37.640625 "/></g></g></g><g fill="#216184" fill-opacity="1"><g transform="translate(1057.594311, 435.560781)"><g><path d="M 22.484375 0.328125 C 18.753906 0.328125 15.390625 -0.492188 12.390625 -2.140625 C 9.398438 -3.796875 7.050781 -6.082031 5.34375 -9 C 3.644531 -11.925781 2.796875 -15.203125 2.796875 -18.828125 C 2.796875 -22.441406 3.644531 -25.707031 5.34375 -28.625 C 7.050781 -31.550781 9.410156 -33.835938 12.421875 -35.484375 C 15.429688 -37.140625 18.800781 -37.96875 22.53125 -37.96875 C 25.332031 -37.96875 27.914062 -37.5 30.28125 -36.5625 C 32.644531 -35.632812 34.648438 -34.273438 36.296875 -32.484375 L 33.78125 -29.953125 C 30.832031 -32.929688 27.117188 -34.421875 22.640625 -34.421875 C 19.660156 -34.421875 16.953125 -33.738281 14.515625 -32.375 C 12.078125 -31.007812 10.164062 -29.144531 8.78125 -26.78125 C 7.40625 -24.414062 6.71875 -21.765625 6.71875 -18.828125 C 6.71875 -15.878906 7.40625 -13.222656 8.78125 -10.859375 C 10.164062 -8.492188 12.078125 -6.628906 14.515625 -5.265625 C 16.953125 -3.910156 19.660156 -3.234375 22.640625 -3.234375 C 27.160156 -3.234375 30.875 -4.738281 33.78125 -7.75 L 36.296875 -5.21875 C 34.648438 -3.425781 32.632812 -2.050781 30.25 -1.09375 C 27.863281 -0.144531 25.273438 0.328125 22.484375 0.328125 Z M 22.484375 0.328125 "/></g></g></g><g fill="#216184" fill-opacity="1"><g transform="translate(1095.453694, 435.560781)"><g><path d="M 22.59375 0.328125 C 18.863281 0.328125 15.484375 -0.503906 12.453125 -2.171875 C 9.421875 -3.835938 7.050781 -6.125 5.34375 -9.03125 C 3.644531 -11.9375 2.796875 -15.203125 2.796875 -18.828125 C 2.796875 -22.441406 3.644531 -25.703125 5.34375 -28.609375 C 7.050781 -31.515625 9.421875 -33.800781 12.453125 -35.46875 C 15.484375 -37.132812 18.863281 -37.96875 22.59375 -37.96875 C 26.320312 -37.96875 29.679688 -37.140625 32.671875 -35.484375 C 35.660156 -33.835938 38.015625 -31.550781 39.734375 -28.625 C 41.460938 -25.707031 42.328125 -22.441406 42.328125 -18.828125 C 42.328125 -15.203125 41.460938 -11.925781 39.734375 -9 C 38.015625 -6.082031 35.660156 -3.796875 32.671875 -2.140625 C 29.679688 -0.492188 26.320312 0.328125 22.59375 0.328125 Z M 22.59375 -3.234375 C 25.5625 -3.234375 28.25 -3.90625 30.65625 -5.25 C 33.0625 -6.59375 34.941406 -8.453125 36.296875 -10.828125 C 37.660156 -13.210938 38.34375 -15.878906 38.34375 -18.828125 C 38.34375 -21.765625 37.660156 -24.425781 36.296875 -26.8125 C 34.941406 -29.195312 33.0625 -31.0625 30.65625 -32.40625 C 28.25 -33.75 25.5625 -34.421875 22.59375 -34.421875 C 19.613281 -34.421875 16.910156 -33.75 14.484375 -32.40625 C 12.066406 -31.0625 10.164062 -29.195312 8.78125 -26.8125 C 7.40625 -24.425781 6.71875 -21.765625 6.71875 -18.828125 C 6.71875 -15.878906 7.40625 -13.210938 8.78125 -10.828125 C 10.164062 -8.453125 12.066406 -6.59375 14.484375 -5.25 C 16.910156 -3.90625 19.613281 -3.234375 22.59375 -3.234375 Z M 22.59375 -3.234375 "/></g></g></g><g clip-path="url(#68e4f6f78f)"><g clip-path="url(#611413521f)"><g clip-path="url(#710be731a0)"><g transform="matrix(1, 0, 0, 1, 33, 89)"><g clip-path="url(#49fd81131b)"><g clip-path="url(#8755115349)"><g clip-path="url(#54ba65dd03)"><g clip-path="url(#2048734e81)"><path fill="#48adab" d="M 12.507812 176.367188 L -10.25 26.847656 L 159.710938 0.976562 L 182.46875 150.5 Z M 12.507812 176.367188 " fill-opacity="1" fill-rule="nonzero"/></g></g></g></g></g></g></g></g><g clip-path="url(#edd46961b6)"><g clip-path="url(#de8aefd57a)"><g clip-path="url(#c2c9bba619)"><g clip-path="url(#094628dfd5)"><path stroke-linecap="butt" transform="matrix(-0.233495, -1.534073, 1.534073, -0.233495, 45.507822, 265.368417)" fill="none" stroke-linejoin="miter" d="M 32.502254 3.144228 C 37.481088 1.248764 43.178104 0.00497793 48.752324 0.00293377 C 54.328654 0.00375707 59.691952 1.069622 64.635718 2.96794 C 64.741269 3.027293 64.845956 3.025402 64.951507 3.084755 C 83.515827 10.669438 97.191333 30.699986 97.452526 53.593022 L 97.454366 110.745603 L -0.00104981 110.744671 L 0.000624831 53.635913 C 0.263197 30.580695 13.725982 10.553158 32.502254 3.144228 Z M 32.502254 3.144228 " stroke="#1e888c" stroke-width="5.799938" stroke-opacity="1" stroke-miterlimit="4"/></g></g></g></g><g clip-path="url(#56aa672ccf)"><g clip-path="url(#18ef83e1b5)"><g clip-path="url(#817b69063d)"><g transform="matrix(1, 0, 0, 1, 106, 110)"><g clip-path="url(#da510b5ff2)"><g clip-path="url(#711b2fd8e1)"><g clip-path="url(#abd727f1a7)"><g clip-path="url(#d667e4eca2)"><path fill="#6bbbc1" d="M 1.488281 27.304688 L -1.160156 11.925781 L 70.136719 -0.359375 L 72.785156 15.015625 Z M 1.488281 27.304688 " fill-opacity="1" fill-rule="nonzero"/></g></g></g></g></g></g></g></g><g clip-path="url(#4fcdd13f84)"><path fill="#032a4b" d="M 294.742188 245.824219 C 297.625 245.824219 299.964844 248.164062 299.964844 251.050781 C 299.964844 253.695312 298 255.882812 295.449219 256.226562 L 294.742188 256.273438 L 280.804688 256.273438 C 277.921875 256.273438 275.582031 253.9375 275.582031 251.050781 C 275.582031 248.402344 277.546875 246.21875 280.097656 245.871094 L 280.804688 245.824219 Z M 308.675781 231.890625 C 311.5625 231.890625 313.898438 234.230469 313.898438 237.117188 C 313.898438 239.761719 311.933594 241.945312 309.382812 242.292969 L 308.675781 242.339844 L 266.871094 242.339844 C 263.984375 242.339844 261.648438 240 261.648438 237.117188 C 261.648438 234.46875 263.613281 232.285156 266.164062 231.9375 L 266.871094 231.890625 Z M 315.640625 217.957031 C 318.527344 217.957031 320.867188 220.296875 320.867188 223.179688 C 320.867188 225.828125 318.902344 228.011719 316.351562 228.359375 L 315.640625 228.40625 L 259.90625 228.40625 C 257.019531 228.40625 254.679688 226.066406 254.679688 223.179688 C 254.679688 220.535156 256.644531 218.347656 259.195312 218.003906 L 259.90625 217.957031 Z M 287.773438 57.710938 C 325.289062 57.710938 355.703125 88.125 355.703125 125.640625 C 355.703125 141.65625 346.152344 158.972656 327.453125 177.789062 C 323.589844 181.675781 321.28125 186.820312 320.921875 192.253906 L 320.871094 193.746094 L 320.867188 205.765625 C 320.863281 210.273438 317.441406 213.980469 313.050781 214.425781 L 312.160156 214.472656 L 263.386719 214.472656 C 258.878906 214.472656 255.171875 211.046875 254.722656 206.652344 L 254.679688 205.761719 L 254.679688 193.75 C 254.679688 187.769531 252.3125 182.03125 248.097656 177.789062 C 229.394531 158.972656 219.84375 141.660156 219.84375 125.640625 C 219.84375 88.125 250.257812 57.710938 287.773438 57.710938 Z M 225.257812 182.316406 C 227.128906 184.1875 227.285156 187.121094 225.726562 189.167969 L 225.257812 189.703125 L 210.476562 204.484375 C 208.4375 206.523438 205.128906 206.523438 203.089844 204.484375 C 201.21875 202.613281 201.0625 199.679688 202.621094 197.628906 L 203.089844 197.09375 L 217.867188 182.316406 C 219.910156 180.273438 223.21875 180.273438 225.257812 182.316406 Z M 357.738281 181.847656 L 358.273438 182.316406 L 373.054688 197.09375 C 375.09375 199.136719 375.09375 202.445312 373.054688 204.484375 C 371.183594 206.355469 368.246094 206.511719 366.199219 204.953125 L 365.664062 204.484375 L 350.882812 189.703125 C 348.84375 187.664062 348.84375 184.355469 350.882812 182.316406 C 352.753906 180.445312 355.691406 180.289062 357.738281 181.847656 Z M 287.773438 68.160156 C 256.027344 68.160156 230.292969 93.894531 230.292969 125.640625 C 230.292969 138.378906 238.566406 153.375 255.507812 170.421875 C 261.261719 176.210938 264.65625 183.902344 265.082031 192.007812 L 265.128906 193.75 L 265.125 204.019531 L 310.417969 204.019531 L 310.421875 193.742188 C 310.421875 186.167969 313.019531 178.863281 317.722656 173.015625 L 318.84375 171.691406 L 320.039062 170.421875 C 336.980469 153.375 345.253906 138.378906 345.253906 125.640625 C 345.253906 93.894531 319.519531 68.160156 287.773438 68.160156 Z M 194.015625 114.277344 C 196.898438 114.277344 199.238281 116.617188 199.238281 119.5 C 199.238281 122.148438 197.273438 124.332031 194.722656 124.679688 L 194.015625 124.726562 L 173.113281 124.726562 C 170.226562 124.726562 167.886719 122.386719 167.886719 119.5 C 167.886719 116.855469 169.851562 114.671875 172.402344 114.324219 L 173.113281 114.277344 Z M 403.03125 114.277344 C 405.914062 114.277344 408.253906 116.617188 408.253906 119.5 C 408.253906 122.148438 406.289062 124.332031 403.738281 124.679688 L 403.03125 124.726562 L 382.128906 124.726562 C 379.242188 124.726562 376.902344 122.386719 376.902344 119.5 C 376.902344 116.855469 378.867188 114.671875 381.417969 114.324219 L 382.128906 114.277344 Z M 294.742188 78.613281 C 316.867188 78.613281 334.800781 96.546875 334.800781 118.671875 C 334.800781 121.558594 332.460938 123.898438 329.578125 123.898438 C 326.691406 123.898438 324.351562 121.558594 324.351562 118.671875 C 324.351562 102.320312 311.09375 89.0625 294.742188 89.0625 C 291.855469 89.0625 289.515625 86.722656 289.515625 83.835938 C 289.515625 80.953125 291.855469 78.613281 294.742188 78.613281 Z M 209.941406 34.050781 L 210.476562 34.519531 L 225.257812 49.300781 C 227.296875 51.339844 227.296875 54.648438 225.257812 56.6875 C 223.386719 58.558594 220.453125 58.714844 218.402344 57.15625 L 217.867188 56.6875 L 203.089844 41.910156 C 201.046875 39.867188 201.046875 36.558594 203.089844 34.519531 C 204.960938 32.648438 207.894531 32.492188 209.941406 34.050781 Z M 373.054688 34.519531 C 374.925781 36.390625 375.082031 39.324219 373.519531 41.375 L 373.054688 41.910156 L 358.273438 56.6875 C 356.234375 58.730469 352.925781 58.730469 350.882812 56.6875 C 349.015625 54.816406 348.859375 51.882812 350.417969 49.835938 L 350.882812 49.300781 L 365.664062 34.519531 C 367.703125 32.480469 371.011719 32.480469 373.054688 34.519531 Z M 288.070312 6.285156 C 290.714844 6.285156 292.902344 8.25 293.25 10.800781 L 293.296875 11.511719 L 293.296875 32.414062 C 293.296875 35.296875 290.957031 37.636719 288.070312 37.636719 C 285.425781 37.636719 283.238281 35.671875 282.894531 33.121094 L 282.847656 32.414062 L 282.847656 11.511719 C 282.847656 8.625 285.183594 6.285156 288.070312 6.285156 Z M 288.070312 6.285156 " fill-opacity="1" fill-rule="nonzero"/></g><g clip-path="url(#35923f2b5b)"><g clip-path="url(#339fa55a1e)"><g transform="matrix(1, 0, 0, 1, 212, 238)"><g clip-path="url(#c867b98bf2)"><g clip-path="url(#8e814efea7)"><g clip-path="url(#d12d05418a)"><path fill="#12567f" d="M 151.730469 171.9375 L 0.488281 171.9375 L 0.488281 0.0195312 L 151.730469 0.0195312 Z M 151.730469 171.9375 " fill-opacity="1" fill-rule="nonzero"/></g></g></g></g></g></g><g clip-path="url(#d3c6299c82)"><g clip-path="url(#c831e3ce41)"><path stroke-linecap="butt" transform="matrix(-1.551741, 0, 0, -1.551741, 363.730103, 409.939344)" fill="none" stroke-linejoin="miter" d="M 32.501069 3.145339 C 37.482874 1.249786 43.177084 0.00370544 48.75298 0.00370544 C 54.328875 0.00370544 59.693315 1.071055 64.634842 2.966608 C 64.74057 3.027024 64.846298 3.027024 64.952026 3.084923 C 83.517368 10.669651 97.189011 30.700081 97.453331 53.59272 L 97.453331 110.74628 L -0.000235503 110.74628 L -0.000235503 53.635515 C 0.264085 30.581766 13.726789 10.551337 32.501069 3.145339 Z M 32.501069 3.145339 " stroke="#032a4b" stroke-width="5.799938" stroke-opacity="1" stroke-miterlimit="4"/></g></g><g clip-path="url(#28961b76b6)"><g clip-path="url(#08dcb45f7c)"><g transform="matrix(1, 0, 0, 1, 233, 256)"><g clip-path="url(#c7828c539f)"><g clip-path="url(#ac4ef6857a)"><g clip-path="url(#e893c5a6b3)"><path fill="#2c8aa4" d="M 0.0976562 0.640625 L 15.703125 0.640625 L 15.703125 72.988281 L 0.0976562 72.988281 Z M 0.0976562 0.640625 " fill-opacity="1" fill-rule="nonzero"/></g></g></g></g></g></g></g></g></svg>